<svg width="73" height="72" viewBox="0 0 73 72" fill="none" xmlns="http://www.w3.org/2000/svg">
<path d="M36.5285 6.16147C36.8993 5.69753 37.3584 5.31174 37.8792 5.02643C38.4001 4.74112 38.9724 4.56195 39.563 4.4993C40.1536 4.43665 40.7507 4.49176 41.3198 4.66145C41.889 4.83113 42.4188 5.11201 42.8787 5.48784L57.528 17.4516C58.3337 18.1094 58.886 19.0265 59.0908 20.0462C59.2955 21.0659 59.14 22.125 58.6508 23.0428C57.37 22.6514 56.038 22.4531 54.6988 22.4545H53.3515L54.6898 20.9276L46.9744 14.6269L40.6107 22.459H34.8219L43.4939 11.7886L40.0359 8.96381L29.2667 22.4545H23.5183L36.5285 6.16147ZM47.9624 44.9091C47.3669 44.9091 46.7957 45.1457 46.3746 45.5668C45.9535 45.9879 45.7169 46.5591 45.7169 47.1546C45.7169 47.7501 45.9535 48.3213 46.3746 48.7424C46.7957 49.1635 47.3669 49.4001 47.9624 49.4001H52.4533C53.0488 49.4001 53.62 49.1635 54.0411 48.7424C54.4622 48.3213 54.6988 47.7501 54.6988 47.1546C54.6988 46.5591 54.4622 45.9879 54.0411 45.5668C53.62 45.1457 53.0488 44.9091 52.4533 44.9091H47.9624ZM14.2805 24.7C14.2805 24.1045 14.517 23.5333 14.9382 23.1122C15.3593 22.6911 15.9304 22.4545 16.5259 22.4545H19.0319L22.6022 17.9636H16.5259C14.7393 17.9636 13.0259 18.6733 11.7626 19.9367C10.4993 21.2 9.78955 22.9134 9.78955 24.7V51.6455C9.78955 54.6232 10.9724 57.4789 13.078 59.5844C15.1835 61.6899 18.0392 62.8728 21.0169 62.8728H54.6988C57.0809 62.8728 59.3655 61.9265 61.0499 60.2421C62.7343 58.5577 63.6806 56.2731 63.6806 53.891V35.9273C63.6806 33.5452 62.7343 31.2606 61.0499 29.5762C59.3655 27.8918 57.0809 26.9455 54.6988 26.9455H16.5259C15.9304 26.9455 15.3593 26.7089 14.9382 26.2878C14.517 25.8667 14.2805 25.2955 14.2805 24.7ZM14.2805 51.6455V31.0546C14.9811 31.3016 15.74 31.4364 16.5259 31.4364H54.6988C55.8898 31.4364 57.0321 31.9095 57.8743 32.7517C58.7165 33.5939 59.1897 34.7362 59.1897 35.9273V53.891C59.1897 55.082 58.7165 56.2243 57.8743 57.0665C57.0321 57.9087 55.8898 58.3819 54.6988 58.3819H21.0169C19.2303 58.3819 17.5168 57.6722 16.2535 56.4089C14.9902 55.1455 14.2805 53.4321 14.2805 51.6455Z" fill="#DCB47A"/>
</svg>
