<svg width="58" height="62" viewBox="0 0 58 62" fill="none" xmlns="http://www.w3.org/2000/svg">
<path d="M26.0203 2.60462C26.9096 2.11073 27.9101 1.85156 28.9274 1.85156C29.9447 1.85156 30.9452 2.11073 31.8345 2.60462L54.334 15.1014C54.8005 15.3608 55.1891 15.7401 55.4597 16.2002C55.7303 16.6603 55.8729 17.1843 55.8729 17.7181V42.3732C55.8727 43.441 55.5869 44.4893 55.0452 45.4095C54.5035 46.3296 53.7256 47.0882 52.7922 47.6066L31.8345 59.2531C30.9452 59.747 29.9447 60.0062 28.9274 60.0062C27.9101 60.0062 26.9096 59.747 26.0203 59.2531L5.06264 47.6066C4.1296 47.0885 3.352 46.3304 2.81034 45.4108C2.26869 44.4912 1.98266 43.4435 1.98187 42.3762V17.7181C1.98185 17.1843 2.12451 16.6603 2.39508 16.2002C2.66565 15.7401 3.0543 15.3608 3.52076 15.1014L26.0233 2.60462H26.0203Z" stroke="#DCB47A" stroke-width="3.42165" stroke-linecap="round" stroke-linejoin="round"/>
<path d="M15.4546 8.47278L42.4001 23.4425V33.9213M10.9637 31.9094L19.9455 36.9153" stroke="#DCB47A" stroke-width="3.42165" stroke-linecap="round" stroke-linejoin="round"/>
<path d="M1.98187 15.9576L28.9274 30.9274M28.9274 30.9274L55.8729 15.9576M28.9274 30.9274V60.8669" stroke="#DCB47A" stroke-width="3.42165" stroke-linejoin="round"/>
</svg>
