<svg width="52" height="53" viewBox="0 0 52 53" fill="none" xmlns="http://www.w3.org/2000/svg">
<path fill-rule="evenodd" clip-rule="evenodd" d="M13.0838 26.5777C13.0838 26.1479 13.2546 25.7357 13.5585 25.4317C13.8624 25.1278 14.2747 24.957 14.7045 24.957H33.4821L26.5227 18.0009C26.2184 17.6966 26.0475 17.2839 26.0475 16.8535C26.0475 16.4231 26.2184 16.0103 26.5227 15.706C26.8271 15.4017 27.2398 15.2307 27.6702 15.2307C28.1006 15.2307 28.5134 15.4017 28.8177 15.706L38.542 25.4303C38.6929 25.5808 38.8126 25.7597 38.8943 25.9566C38.976 26.1535 39.0181 26.3646 39.0181 26.5777C39.0181 26.7909 38.976 27.002 38.8943 27.1989C38.8126 27.3958 38.6929 27.5747 38.542 27.7252L28.8177 37.4495C28.5134 37.7538 28.1006 37.9248 27.6702 37.9248C27.2398 37.9248 26.8271 37.7538 26.5227 37.4495C26.2184 37.1452 26.0475 36.7324 26.0475 36.302C26.0475 35.8716 26.2184 35.4589 26.5227 35.1546L33.4821 28.1985H14.7045C14.2747 28.1985 13.8624 28.0277 13.5585 27.7238C13.2546 27.4198 13.0838 27.0076 13.0838 26.5777Z" fill="#4F4F4F"/>
</svg>
